# Blender 3.4.1
# www.blender.org
o Bed_2
v 0.708267 0.468153 -0.975052
v 0.708267 0.494538 -1.114133
v 0.843175 0.494538 -0.975052
v 0.708267 0.475881 -1.073397
v 0.786156 0.479305 -1.055351
v 0.803661 0.494538 -1.073397
v 0.803661 0.475881 -0.975052
v 0.708267 0.771580 -1.114133
v 0.708267 0.797964 -0.975052
v 0.843175 0.771580 -0.975052
v 0.708267 0.790236 -1.073397
v 0.786156 0.786813 -1.055351
v 0.803661 0.790236 -0.975052
v 0.803661 0.771580 -1.073397
v 0.708267 0.468153 0.975052
v 0.843175 0.494538 0.975052
v 0.708267 0.494538 1.114133
v 0.803661 0.475881 0.975052
v 0.786156 0.479305 1.055351
v 0.803661 0.494538 1.073397
v 0.708267 0.475881 1.073397
v 0.708267 0.797964 0.975052
v 0.708267 0.771580 1.114133
v 0.843175 0.771580 0.975052
v 0.708267 0.790236 1.073397
v 0.786156 0.786813 1.055351
v 0.803661 0.771580 1.073397
v 0.803661 0.790236 0.975052
v -0.708267 0.468153 -0.975052
v -0.843175 0.494538 -0.975052
v -0.708267 0.494538 -1.114133
v -0.803661 0.475881 -0.975052
v -0.786156 0.479305 -1.055351
v -0.803661 0.494538 -1.073397
v -0.708267 0.475881 -1.073397
v -0.708267 0.797964 -0.975052
v -0.708267 0.771580 -1.114133
v -0.843175 0.771580 -0.975052
v -0.708267 0.790236 -1.073397
v -0.786156 0.786813 -1.055351
v -0.803661 0.771580 -1.073397
v -0.803661 0.790236 -0.975052
v -0.708267 0.468153 0.975052
v -0.708267 0.494538 1.114133
v -0.843175 0.494538 0.975052
v -0.708267 0.475881 1.073397
v -0.786156 0.479305 1.055351
v -0.803661 0.494538 1.073397
v -0.803661 0.475881 0.975052
v -0.708267 0.797964 0.975052
v -0.843175 0.771580 0.975052
v -0.708267 0.771580 1.114133
v -0.803661 0.790236 0.975052
v -0.786156 0.786813 1.055351
v -0.803661 0.771580 1.073397
v -0.708267 0.790236 1.073397
v -0.032865 0.793944 0.750767
v -0.032865 0.919347 0.750767
v -0.032865 0.793944 1.040810
v -0.032865 0.919347 1.040810
v -0.615718 0.793944 0.750767
v -0.615718 0.919347 0.750767
v -0.615718 0.793944 1.040810
v -0.615718 0.919347 1.040810
v -0.324291 0.774450 1.085897
v -0.324291 0.938841 1.085897
v -0.324291 0.774450 0.705679
v -0.324291 0.938841 0.765987
v -0.017373 0.856645 0.743057
v -0.017373 0.856645 1.048519
v -0.631210 0.856645 1.048519
v -0.631210 0.856645 0.743057
v -0.324291 0.856645 0.695573
v -0.324291 0.856645 1.096003
v 0.623109 0.793944 0.750767
v 0.623109 0.919347 0.750767
v 0.623109 0.793944 1.040810
v 0.623109 0.919347 1.040810
v 0.040257 0.793944 0.750767
v 0.040257 0.919347 0.750767
v 0.040257 0.793944 1.040810
v 0.040257 0.919347 1.040810
v 0.331683 0.774450 1.085897
v 0.331683 0.938841 1.085897
v 0.331683 0.774450 0.705679
v 0.331683 0.938841 0.765987
v 0.638601 0.856645 0.743057
v 0.638601 0.856645 1.048519
v 0.024765 0.856645 1.048519
v 0.024765 0.856645 0.743057
v 0.331683 0.856645 0.695573
v 0.331683 0.856645 1.096003
vn -0.0000 -0.0000 -1.0000
vn -1.0000 -0.0000 -0.0000
vn -0.0000 1.0000 -0.0000
vn 1.0000 -0.0000 -0.0000
vn -0.0000 -0.0000 1.0000
vn 0.0712 -0.9951 -0.0691
vn 0.1711 -0.8747 -0.4534
vn 0.4648 -0.8699 -0.1650
vn 0.1711 0.8747 -0.4534
vn 0.0712 0.9951 -0.0691
vn 0.4648 0.8699 -0.1650
vn 0.0712 -0.9951 0.0691
vn 0.4648 -0.8699 0.1650
vn 0.1711 -0.8747 0.4534
vn 0.0712 0.9951 0.0691
vn 0.1711 0.8747 0.4534
vn 0.4648 0.8699 0.1650
vn -0.0712 -0.9951 -0.0691
vn -0.4648 -0.8699 -0.1650
vn -0.1711 -0.8747 -0.4534
vn -0.0712 0.9951 -0.0691
vn -0.1711 0.8747 -0.4534
vn -0.4648 0.8699 -0.1650
vn -0.0712 -0.9951 0.0691
vn -0.1711 -0.8747 0.4534
vn -0.4648 -0.8699 0.1650
vn -0.0712 0.9951 0.0691
vn -0.4648 0.8699 0.1650
vn -0.1711 0.8747 0.4534
vn 0.0807 -0.9967 -0.0000
vn 0.4270 -0.9043 -0.0000
vn 0.3927 -0.0000 -0.9197
vn 0.9279 -0.0000 -0.3728
vn 0.0807 0.9967 -0.0000
vn 0.4270 0.9043 -0.0000
vn 0.3927 -0.0000 0.9197
vn 0.9279 -0.0000 0.3728
vn -0.0000 -0.9969 0.0783
vn -0.0000 -0.9092 0.4164
vn -0.0000 0.9969 0.0783
vn -0.0000 0.9092 0.4164
vn -0.9279 -0.0000 0.3728
vn -0.3927 -0.0000 0.9197
vn -0.0807 -0.9967 -0.0000
vn -0.4270 -0.9043 -0.0000
vn -0.0807 0.9967 -0.0000
vn -0.4270 0.9043 -0.0000
vn -0.3927 -0.0000 -0.9197
vn -0.9279 -0.0000 -0.3728
vn -0.0000 -0.9969 -0.0783
vn -0.0000 -0.9092 -0.4164
vn -0.0000 0.9969 -0.0783
vn -0.0000 0.9092 -0.4164
vn -0.0000 -1.0000 -0.0000
vn 0.9708 0.2399 -0.0000
vn -0.1558 0.1369 0.9782
vn -0.9708 0.2399 -0.0000
vn 0.0628 0.4788 -0.8757
vn -0.0667 -0.9978 -0.0000
vn 0.0667 0.9978 -0.0000
vn -0.0667 0.9978 -0.0000
vn 0.0667 -0.9978 -0.0000
vn -0.0628 0.4788 -0.8757
vn 0.1558 0.1369 0.9782
vn 0.1558 -0.1369 0.9782
vn -0.1558 -0.1369 -0.9782
vn 0.1558 -0.1369 -0.9782
vn -0.9708 -0.2399 -0.0000
vn -0.1558 -0.1369 0.9782
vn 0.9708 -0.2399 -0.0000
vt -0.333384 1.050259
vt 0.253506 1.626830
vt 0.253506 -0.637149
vt -0.333384 1.086890
vt 0.206555 1.626830
vt -0.360492 1.086890
vt 0.226399 1.673781
vt 0.206555 -0.658298
vt 0.253506 1.673781
vt 0.253506 -0.673781
vt -0.380336 1.050259
vt 0.206555 -0.637149
vt 0.746494 1.626830
vt 1.333384 1.050259
vt 0.746494 -0.637149
vt 1.333384 1.086890
vt 0.793445 1.626830
vt 0.793445 1.653937
vt 1.380336 1.071408
vt 0.773601 -0.673781
vt 1.380336 1.050259
vt 0.793445 -0.637149
vt 0.746494 1.673781
vt 0.746494 -0.673781
vt -0.333384 0.536632
vt 0.253506 -0.123522
vt 0.253506 -0.039939
vt -0.380336 0.536632
vt 0.206555 -0.123522
vt -0.380336 0.515482
vt 0.226399 -0.086890
vt 0.206555 -0.067047
vt 0.253506 -0.086890
vt -0.333384 0.500000
vt 0.206555 -0.039939
vt 1.333385 0.536632
vt 0.746494 -0.039939
vt 0.746494 -0.123522
vt 1.333384 0.500000
vt 0.793445 -0.039939
vt 1.360492 0.500000
vt 0.773601 -0.086890
vt 0.793445 -0.102373
vt 0.746494 -0.086890
vt 1.380336 0.536632
vt 0.793445 -0.123522
vt 0.159604 1.050259
vt 0.253506 1.050259
vt 0.253506 1.133842
vt 0.206555 1.050259
vt 0.213170 1.088344
vt 0.253506 1.086890
vt 0.159604 1.086890
vt 0.206555 1.133842
vt 0.840396 1.050259
vt 0.746494 1.133842
vt 0.746494 1.050259
vt 0.840396 1.086890
vt 0.793445 1.133842
vt 0.793445 1.081730
vt 0.746494 1.086890
vt 0.793445 1.050259
vt 0.159604 0.536632
vt 0.253506 0.453049
vt 0.253506 0.536632
vt 0.159604 0.500000
vt 0.206555 0.453049
vt 0.206555 0.505161
vt 0.253506 0.500000
vt 0.206555 0.536632
vt 0.840396 0.536632
vt 0.746494 0.536632
vt 0.746494 0.453049
vt 0.793445 0.536632
vt 0.786831 0.498546
vt 0.746494 0.500000
vt 0.840396 0.500000
vt 0.793445 0.453049
vt 0.125000 0.750000
vt 0.375000 1.000000
vt 0.375000 0.000000
vt 0.625000 0.000000
vt 0.625000 1.000000
vt 0.875000 0.750000
vt 0.125000 0.500000
vt 0.375000 0.250000
vt 0.875000 0.500000
vt 0.625000 0.250000
vt 0.375000 0.750000
vt 0.625000 0.750000
vt 0.375000 0.500000
vt 0.625000 0.500000
vt 0.250000 0.500000
vt 0.375000 0.375000
vt 0.750000 0.500000
vt 0.625000 0.375000
vt 0.250000 0.750000
vt 0.375000 0.875000
vt 0.750000 0.750000
vt 0.625000 0.875000
vt 0.500000 1.000000
vt 0.500000 0.000000
vt 0.500000 0.250000
vt 0.500000 0.500000
vt 0.500000 0.750000
vt 0.500000 0.875000
vt 0.500000 0.375000
vt 0.125000 0.750000
vt 0.375000 1.000000
vt 0.375000 0.000000
vt 0.625000 0.000000
vt 0.625000 1.000000
vt 0.875000 0.750000
vt 0.125000 0.500000
vt 0.375000 0.250000
vt 0.875000 0.500000
vt 0.625000 0.250000
vt 0.375000 0.750000
vt 0.625000 0.750000
vt 0.375000 0.500000
vt 0.625000 0.500000
vt 0.250000 0.500000
vt 0.375000 0.375000
vt 0.750000 0.500000
vt 0.625000 0.375000
vt 0.250000 0.750000
vt 0.375000 0.875000
vt 0.750000 0.750000
vt 0.625000 0.875000
vt 0.500000 1.000000
vt 0.500000 0.000000
vt 0.500000 0.250000
vt 0.500000 0.500000
vt 0.500000 0.750000
vt 0.500000 0.875000
vt 0.500000 0.375000
s 0
f 31/49/1 37/56/1 8/13/1 2/2/1
f 45/65/2 51/72/2 38/57/2 30/48/2
f 50/71/3 22/36/3 9/14/3 36/55/3
f 3/3/4 10/15/4 24/38/4 16/26/4
f 17/27/5 23/37/5 52/73/5 44/64/5
f 1/1/6 4/4/6 5/6/6 7/11/6
f 2/2/7 6/9/7 5/7/7 4/5/7
f 3/3/8 7/12/8 5/8/8 6/10/8
f 8/13/9 11/17/9 12/18/9 14/23/9
f 9/14/10 13/21/10 12/19/10 11/16/10
f 10/15/11 14/24/11 12/20/11 13/22/11
f 15/25/12 18/28/12 19/30/12 21/34/12
f 16/26/13 20/33/13 19/31/13 18/29/13
f 17/27/14 21/35/14 19/32/14 20/33/14
f 22/36/15 25/39/15 26/41/15 28/45/15
f 23/37/16 27/44/16 26/42/16 25/40/16
f 24/38/17 28/46/17 26/43/17 27/44/17
f 29/47/18 32/50/18 33/51/18 35/53/18
f 30/48/19 34/52/19 33/51/19 32/50/19
f 31/49/20 35/54/20 33/51/20 34/52/20
f 36/55/21 39/58/21 40/60/21 42/62/21
f 37/56/22 41/61/22 40/60/22 39/59/22
f 38/57/23 42/62/23 40/60/23 41/61/23
f 43/63/24 46/66/24 47/68/24 49/70/24
f 44/64/25 48/69/25 47/68/25 46/67/25
f 45/65/26 49/70/26 47/68/26 48/69/26
f 50/71/27 53/74/27 54/75/27 56/77/27
f 51/72/28 55/76/28 54/75/28 53/74/28
f 52/73/29 56/78/29 54/75/29 55/76/29
f 15/25/30 1/1/30 7/11/30 18/28/30
f 18/29/31 7/12/31 3/3/31 16/26/31
f 2/2/32 8/13/32 14/23/32 6/9/32
f 6/10/33 14/24/33 10/15/33 3/3/33
f 9/14/34 22/36/34 28/45/34 13/21/34
f 13/22/35 28/46/35 24/38/35 10/15/35
f 23/37/36 17/27/36 20/33/36 27/44/36
f 27/44/37 20/33/37 16/26/37 24/38/37
f 43/63/38 15/25/38 21/34/38 46/66/38
f 46/67/39 21/35/39 17/27/39 44/64/39
f 22/36/40 50/71/40 56/77/40 25/39/40
f 25/40/41 56/78/41 52/73/41 23/37/41
f 51/72/42 45/65/42 48/69/42 55/76/42
f 55/76/43 48/69/43 44/64/43 52/73/43
f 29/47/44 43/63/44 49/70/44 32/50/44
f 32/50/45 49/70/45 45/65/45 30/48/45
f 50/71/46 36/55/46 42/62/46 53/74/46
f 53/74/47 42/62/47 38/57/47 51/72/47
f 37/56/48 31/49/48 34/52/48 41/61/48
f 41/61/49 34/52/49 30/48/49 38/57/49
f 1/1/50 29/47/50 35/53/50 4/4/50
f 4/5/51 35/54/51 31/49/51 2/2/51
f 36/55/52 9/14/52 11/16/52 39/58/52
f 39/59/53 11/17/53 8/13/53 37/56/53
f 15/25/54 43/63/54 29/47/54 1/1/54
f 69/102/55 58/82/55 60/88/55 70/103/55
f 74/107/56 66/96/56 64/92/56 71/104/56
f 71/104/57 64/92/57 62/90/57 72/105/57
f 73/106/58 68/100/58 58/83/58 69/101/58
f 65/93/59 63/91/59 61/89/59 67/97/59
f 66/95/60 60/87/60 58/84/60 68/99/60
f 64/92/61 66/95/61 68/99/61 62/90/61
f 59/85/62 65/93/62 67/97/62 57/79/62
f 72/105/63 62/90/63 68/100/63 73/106/63
f 70/103/64 60/88/64 66/96/64 74/107/64
f 59/86/65 70/103/65 74/107/65 65/94/65
f 61/89/66 72/105/66 73/106/66 67/98/66
f 67/98/67 73/106/67 69/101/67 57/80/67
f 63/91/68 71/104/68 72/105/68 61/89/68
f 65/94/69 74/107/69 71/104/69 63/91/69
f 57/81/70 69/102/70 70/103/70 59/86/70
f 87/131/55 76/111/55 78/117/55 88/132/55
f 92/136/56 84/125/56 82/121/56 89/133/56
f 89/133/57 82/121/57 80/119/57 90/134/57
f 91/135/58 86/129/58 76/112/58 87/130/58
f 83/122/59 81/120/59 79/118/59 85/126/59
f 84/124/60 78/116/60 76/113/60 86/128/60
f 82/121/61 84/124/61 86/128/61 80/119/61
f 77/114/62 83/122/62 85/126/62 75/108/62
f 90/134/63 80/119/63 86/129/63 91/135/63
f 88/132/64 78/117/64 84/125/64 92/136/64
f 77/115/65 88/132/65 92/136/65 83/123/65
f 79/118/66 90/134/66 91/135/66 85/127/66
f 85/127/67 91/135/67 87/130/67 75/109/67
f 81/120/68 89/133/68 90/134/68 79/118/68
f 83/123/69 92/136/69 89/133/69 81/120/69
f 75/110/70 87/131/70 88/132/70 77/115/70
