# Blender 3.4.1
# www.blender.org
o Bed_Sheets_1
v 0.589534 0.793147 -1.073789
v -0.593140 0.795990 -1.084445
v 0.617844 0.800549 0.861381
v -0.617844 0.800549 0.861381
v 0.516189 0.803732 -1.125654
v 0.458903 0.807528 0.860571
v -0.513999 0.809931 -1.126490
v -0.456713 0.807528 0.860571
v 0.622578 0.796332 -0.965974
v -0.622939 0.796332 -0.965974
v 0.512484 0.812756 -0.966066
v -0.510294 0.818548 -0.966098
v 0.609841 0.274526 -1.109198
v -0.613571 0.277370 -1.120221
v 0.617844 0.281928 0.862907
v -0.617844 0.281928 0.862907
v 0.516189 0.285112 -1.124127
v -0.513999 0.291310 -1.124963
v 0.622578 0.277712 -0.964448
v -0.622939 0.277712 -0.964448
v 0.244386 0.946358 0.860571
v 0.274829 0.805185 -1.125849
v 0.272860 0.814113 -0.966073
v 0.274829 0.286564 -1.124323
v -0.270642 0.808467 -1.126292
v -0.270642 0.289846 -1.124766
v -0.240421 0.946358 0.860571
v -0.268688 0.817180 -0.966090
vn -0.1060 0.9944 0.0036
vn 0.0867 0.9962 0.0017
vn -0.2874 0.9575 -0.0245
vn 0.0059 0.9985 -0.0541
vn 0.1628 0.9847 -0.0628
vn -0.1956 0.9794 -0.0498
vn -0.2585 0.0370 -0.9653
vn 1.0000 -0.0000 0.0026
vn 0.3752 0.0376 -0.9262
vn -1.0000 -0.0000 0.0028
vn -0.9897 0.0242 -0.1414
vn 0.9835 0.0251 -0.1789
vn 0.0008 -0.0029 -1.0000
vn 0.0059 0.9984 -0.0560
vn 0.2948 0.9552 -0.0266
vn 0.0059 0.9985 -0.0550
vn 0.0030 0.9974 -0.0714
vt 0.000000 0.000000
vt 1.000000 0.000000
vt 0.000000 1.000000
vt 1.000000 1.000000
vt 0.069044 0.000000
vt 0.069044 1.000000
vt 0.929127 0.000000
vt 0.929127 1.000000
vt 0.000000 0.064673
vt 1.000000 0.064673
vt 0.069044 0.064673
vt 0.929127 0.064673
vt 0.000000 0.000000
vt 1.000000 0.000000
vt 0.000000 1.000000
vt 1.000000 1.000000
vt 0.069044 0.000000
vt 0.929127 0.000000
vt 0.000000 0.064673
vt 1.000000 0.064673
vt 0.270551 1.000000
vt 0.270551 0.000000
vt 0.270551 0.064673
vt 0.270551 0.000000
vt 0.725954 0.000000
vt 0.725954 0.000000
vt 0.725954 1.000000
vt 0.725954 0.064673
s 0
f 12/12/1 10/10/1 4/4/1 8/8/1
f 9/9/2 11/11/2 6/6/2 3/3/2
f 28/28/3 12/12/3 8/8/3 27/27/3
f 25/25/4 7/7/4 12/12/4 28/28/4
f 1/1/5 5/5/5 11/11/5 9/9/5
f 7/7/6 2/2/6 10/10/6 12/12/6
f 2/2/7 7/7/7 18/18/7 14/14/7
f 9/9/8 3/3/8 15/15/8 19/19/8
f 5/5/9 1/1/9 13/13/9 17/17/9
f 4/4/10 10/10/10 20/20/10 16/16/10
f 10/10/11 2/2/11 14/14/11 20/20/11
f 1/1/12 9/9/12 19/19/12 13/13/12
f 22/22/13 5/5/13 17/17/13 24/24/13
f 25/25/13 22/22/13 24/24/13 26/26/13
f 5/5/14 22/22/14 23/23/14 11/11/14
f 11/11/15 23/23/15 21/21/15 6/6/15
f 7/7/13 25/25/13 26/26/13 18/18/13
f 22/22/16 25/25/16 28/28/16 23/23/16
f 23/23/17 28/28/17 27/27/17 21/21/17
