# Blender 3.4.1
# www.blender.org
o Bed_Sheets_2
v 0.810468 0.794883 -1.073789
v -0.815425 0.797726 -1.084445
v 0.849388 0.802285 0.861381
v -0.849388 0.802285 0.861381
v 0.709636 0.805469 -1.125654
v 0.630882 0.948095 0.860571
v -0.706625 0.811667 -1.126490
v -0.627871 0.948095 0.860571
v 0.855896 0.798069 -0.965974
v -0.856392 0.798069 -0.965974
v 0.704543 0.814492 -0.966066
v -0.701532 0.820285 -0.966098
v 0.844491 0.282326 -1.104210
v -0.836038 0.293823 -1.110294
v 0.849388 0.289728 0.862907
v -0.849388 0.289728 0.862907
v 0.709636 0.263173 -1.124127
v -0.706625 0.269372 -1.124963
v 0.855896 0.285512 -0.964448
v -0.856392 0.285512 -0.964448
vn -0.4076 0.9129 -0.0240
vn 0.4016 0.9154 -0.0257
vn 0.0022 0.9974 -0.0714
vn 0.0043 0.9985 -0.0550
vn 0.1191 0.9909 -0.0632
vn -0.1436 0.9884 -0.0502
vn -0.2304 0.0272 -0.9727
vn 1.0000 -0.0000 0.0036
vn 0.2900 0.0355 -0.9564
vn -1.0000 -0.0000 0.0038
vn -0.9740 0.0251 -0.2252
vn 0.9737 0.0386 -0.2245
vn 0.0006 -0.0028 -1.0000
vt 0.000000 0.000000
vt 1.000000 0.000000
vt 0.000000 1.000000
vt 1.000000 1.000000
vt 0.069044 0.000000
vt 0.069044 1.000000
vt 0.929127 0.000000
vt 0.929127 1.000000
vt 0.000000 0.064673
vt 1.000000 0.064673
vt 0.069044 0.064673
vt 0.929127 0.064673
vt 0.000000 0.000000
vt 1.000000 0.000000
vt 0.000000 1.000000
vt 1.000000 1.000000
vt 0.069044 0.000000
vt 0.929127 0.000000
vt 0.000000 0.064673
vt 1.000000 0.064673
s 0
f 12/12/1 10/10/1 4/4/1 8/8/1
f 9/9/2 11/11/2 6/6/2 3/3/2
f 11/11/3 12/12/3 8/8/3 6/6/3
f 5/5/4 7/7/4 12/12/4 11/11/4
f 1/1/5 5/5/5 11/11/5 9/9/5
f 7/7/6 2/2/6 10/10/6 12/12/6
f 2/2/7 7/7/7 18/18/7 14/14/7
f 9/9/8 3/3/8 15/15/8 19/19/8
f 5/5/9 1/1/9 13/13/9 17/17/9
f 4/4/10 10/10/10 20/20/10 16/16/10
f 10/10/11 2/2/11 14/14/11 20/20/11
f 1/1/12 9/9/12 19/19/12 13/13/12
f 7/7/13 5/5/13 17/17/13 18/18/13
