# Blender 3.4.1
# www.blender.org
o Cube.001
v 0.916629 0.418110 -0.386216
v 0.916629 2.935706 -0.386216
v 0.916629 0.418110 0.386216
v 0.916629 2.935706 0.386216
v -0.916629 0.418110 -0.386216
v -0.916629 2.935706 -0.386216
v -0.916629 0.418110 0.386216
v -0.916629 2.935706 0.386216
vn 1.0000 -0.0000 -0.0000
vn -0.0000 -0.0000 1.0000
vn -1.0000 -0.0000 -0.0000
vn -0.0000 -0.0000 -1.0000
vn -0.0000 -1.0000 -0.0000
vn -0.0000 1.0000 -0.0000
vt -2.592183 -2.218144
vt 0.000000 0.000000
vt 0.000000 1.000000
vt -2.592183 3.966222
vt 0.000000 0.000000
vt 1.000000 0.000000
vt -2.592183 -2.218144
vt 0.000000 1.000000
vt 1.000000 1.000000
vt -2.592183 3.966222
vt 0.000000 1.000000
vt 0.000000 0.000000
vt 3.592183 -2.218144
vt 1.000000 0.000000
vt 0.000000 1.000000
vt 3.592183 3.966222
vt 1.000000 0.000000
vt 3.592183 -2.218144
vt 1.000000 0.000000
vt 1.000000 1.000000
vt 3.592183 3.966222
vt 1.000000 1.000000
s 0
f 1/2/1 2/3/1 4/9/1 3/6/1
f 3/7/2 4/10/2 8/21/2 7/18/2
f 7/19/3 8/22/3 6/15/3 5/12/3
f 5/13/4 6/16/4 2/4/4 1/1/4
f 3/8/5 7/20/5 5/14/5 1/2/5
f 8/22/6 4/11/6 2/5/6 6/17/6
