# Blender 3.4.1
# www.blender.org
o Cylinder
v 0.000000 0.000000 0.152297
v 0.000000 0.645424 0.061423
v -0.131893 0.000000 0.076148
v -0.053194 0.645424 0.030712
v -0.131893 0.000000 -0.076148
v -0.053194 0.645424 -0.030712
v 0.000000 0.000000 -0.152297
v 0.000000 0.645424 -0.061423
v 0.131893 0.000000 -0.076148
v 0.053194 0.645424 -0.030712
v 0.131893 0.000000 0.076148
v 0.053194 0.645424 0.030712
v -0.131893 0.508675 0.076148
v 0.000000 0.508675 0.152297
v -0.131893 0.508675 -0.076148
v 0.000000 0.508675 -0.152297
v 0.131893 0.508675 -0.076148
v 0.131893 0.508675 0.076148
v -0.053194 0.857179 0.030712
v 0.000000 0.857179 0.061423
v -0.053194 0.857179 -0.030712
v 0.000000 0.857179 -0.061423
v 0.053194 0.857179 -0.030712
v 0.053194 0.857179 0.030712
v -0.053194 0.895533 0.030712
v 0.000000 0.895533 0.061423
v -0.053194 0.895533 -0.030712
v 0.000000 0.895533 -0.061423
v 0.053194 0.895533 -0.030712
v 0.053194 0.895533 0.030712
v -0.064082 0.857179 0.036998
v 0.000000 0.857179 0.073996
v -0.064082 0.857179 -0.036998
v 0.000000 0.857179 -0.073996
v 0.064082 0.857179 -0.036998
v 0.064082 0.857179 0.036998
v -0.064082 0.895533 0.036998
v 0.000000 0.895533 0.073996
v -0.064082 0.895533 -0.036998
v 0.000000 0.895533 -0.073996
v 0.064082 0.895533 -0.036998
v 0.064082 0.895533 0.036998
vn -0.5000 -0.0000 0.8660
vn -1.0000 -0.0000 -0.0000
vn -0.5000 -0.0000 -0.8660
vn 0.5000 -0.0000 -0.8660
vn 1.0000 -0.0000 -0.0000
vn 0.5000 -0.0000 0.8660
vn -0.0000 -1.0000 -0.0000
vn -0.4334 0.4988 0.7506
vn -0.8667 0.4988 -0.0000
vn -0.4334 0.4988 -0.7506
vn 0.4334 0.4988 -0.7506
vn 0.8667 0.4988 -0.0000
vn 0.4334 0.4988 0.7506
vn -0.0000 1.0000 -0.0000
vt 1.000000 0.500000
vt -0.000000 0.500000
vt 0.750000 0.490000
vt 0.250000 0.376436
vt 0.833333 0.500000
vt 0.957846 0.370000
vt 0.359497 0.313218
vt 0.666667 0.500000
vt 0.957846 0.130000
vt 0.359497 0.186782
vt 0.500000 0.500000
vt 0.750000 0.010000
vt 0.250000 0.123564
vt 0.333333 0.500000
vt 0.542154 0.130000
vt 0.140503 0.186782
vt 0.166667 0.500000
vt 0.542154 0.370000
vt 0.140503 0.313218
vt 0.833333 1.000000
vt 0.457846 0.370000
vt 1.000000 1.000000
vt -0.000000 1.000000
vt 0.250000 0.490000
vt 0.666667 1.000000
vt 0.457846 0.130000
vt 0.500000 1.000000
vt 0.250000 0.010000
vt 0.333333 1.000000
vt 0.042154 0.130000
vt 0.166667 1.000000
vt 0.042154 0.370000
vt 0.359497 0.313218
vt 0.250000 0.376436
vt 0.359497 0.186782
vt 0.250000 0.123564
vt 0.140503 0.186782
vt 0.140503 0.313218
vt 0.359497 0.313218
vt 0.250000 0.376436
vt 0.359497 0.186782
vt 0.250000 0.123564
vt 0.140503 0.186782
vt 0.140503 0.313218
vt 0.359497 0.313218
vt 0.250000 0.376436
vt 0.359497 0.186782
vt 0.250000 0.123564
vt 0.140503 0.186782
vt 0.140503 0.313218
vt 0.359497 0.313218
vt 0.250000 0.376436
vt 0.359497 0.186782
vt 0.250000 0.123564
vt 0.140503 0.186782
vt 0.140503 0.313218
s 0
f 1/1/1 14/22/1 13/20/1 3/5/1
f 3/5/2 13/20/2 15/25/2 5/8/2
f 5/8/3 15/25/3 16/27/3 7/11/3
f 7/11/4 16/27/4 17/29/4 9/14/4
f 12/19/5 10/16/5 23/37/5 24/38/5
f 9/14/5 17/29/5 18/31/5 11/17/5
f 11/17/6 18/31/6 14/23/6 1/2/6
f 1/3/7 3/6/7 5/9/7 7/12/7 9/15/7 11/18/7
f 2/4/8 4/7/8 13/21/8 14/24/8
f 4/7/9 6/10/9 15/26/9 13/21/9
f 6/10/10 8/13/10 16/28/10 15/26/10
f 8/13/11 10/16/11 17/30/11 16/28/11
f 10/16/12 12/19/12 18/32/12 17/30/12
f 12/19/13 2/4/13 14/24/13 18/32/13
f 24/38/7 23/37/7 35/49/7 36/50/7
f 8/13/3 6/10/3 21/35/3 22/36/3
f 4/7/1 2/4/1 20/34/1 19/33/1
f 2/4/6 12/19/6 24/38/6 20/34/6
f 10/16/4 8/13/4 22/36/4 23/37/4
f 6/10/2 4/7/2 19/33/2 21/35/2
f 25/39/14 26/40/14 30/44/14 29/43/14 28/42/14 27/41/14
f 27/41/14 28/42/14 40/54/14 39/53/14
f 19/33/7 20/34/7 32/46/7 31/45/7
f 30/44/14 26/40/14 38/52/14 42/56/14
f 23/37/7 22/36/7 34/48/7 35/49/7
f 25/39/14 27/41/14 39/53/14 37/51/14
f 35/49/4 34/48/4 40/54/4 41/55/4
f 33/47/2 31/45/2 37/51/2 39/53/2
f 36/50/5 35/49/5 41/55/5 42/56/5
f 34/48/3 33/47/3 39/53/3 40/54/3
f 31/45/1 32/46/1 38/52/1 37/51/1
f 32/46/6 36/50/6 42/56/6 38/52/6
f 21/35/7 19/33/7 31/45/7 33/47/7
f 28/42/14 29/43/14 41/55/14 40/54/14
f 20/34/7 24/38/7 36/50/7 32/46/7
f 26/40/14 25/39/14 37/51/14 38/52/14
f 22/36/7 21/35/7 33/47/7 34/48/7
f 29/43/14 30/44/14 42/56/14 41/55/14
