# Blender 3.4.1
# www.blender.org
o Camera_Lens
v 0.000000 0.010566 -0.020498
v 0.000000 -0.010566 -0.029310
v 0.017752 0.010566 -0.010249
v 0.025383 -0.010566 -0.014655
v 0.017752 0.010566 0.010249
v 0.025383 -0.010566 0.014655
v 0.000000 0.010566 0.020498
v 0.000000 -0.010566 0.029310
v -0.017752 0.010566 0.010249
v -0.025383 -0.010566 0.014655
v -0.017752 0.010566 -0.010249
v -0.025383 -0.010566 -0.014655
v 0.000000 0.010566 -0.029310
v 0.025383 0.010566 -0.014655
v 0.025383 0.010566 0.014655
v 0.000000 0.010566 0.029310
v -0.025383 0.010566 0.014655
v -0.025383 0.010566 -0.014655
v 0.000000 0.004618 -0.020498
v 0.017752 0.004618 -0.010249
v 0.017752 0.004618 0.010249
v 0.000000 0.004618 0.020498
v -0.017752 0.004618 0.010249
v -0.017752 0.004618 -0.010249
vn 0.5000 -0.0000 -0.8660
vn 1.0000 -0.0000 -0.0000
vn 0.5000 -0.0000 0.8660
vn -0.5000 -0.0000 0.8660
vn -0.0000 -1.0000 -0.0000
vn -1.0000 -0.0000 -0.0000
vn -0.5000 -0.0000 -0.8660
vn -0.0000 1.0000 -0.0000
vt 0.750000 0.417847
vt 1.000000 1.000000
vt 0.250000 0.490000
vt -0.000000 1.000000
vt 0.895360 0.333923
vt 0.833333 1.000000
vt 0.457846 0.370000
vt 0.895360 0.166077
vt 0.666667 1.000000
vt 0.457846 0.130000
vt 0.750000 0.082153
vt 0.500000 1.000000
vt 0.250000 0.010000
vt 0.604640 0.166077
vt 0.042154 0.130000
vt 0.333333 1.000000
vt 0.604640 0.333923
vt 0.042154 0.370000
vt 0.166667 1.000000
vt 1.000000 0.500000
vt -0.000000 0.500000
vt 0.750000 0.490000
vt 0.833333 0.500000
vt 0.957846 0.370000
vt 0.666667 0.500000
vt 0.957846 0.130000
vt 0.500000 0.500000
vt 0.750000 0.010000
vt 0.333333 0.500000
vt 0.542154 0.130000
vt 0.166667 0.500000
vt 0.542154 0.370000
vt 0.750000 0.417847
vt 0.895360 0.333923
vt 0.895360 0.166077
vt 0.750000 0.082153
vt 0.604640 0.166077
vt 0.604640 0.333923
s 0
f 13/20/1 14/23/1 4/6/1 2/2/1
f 14/23/2 15/25/2 6/9/2 4/6/2
f 15/25/3 16/27/3 8/12/3 6/9/3
f 16/27/4 17/29/4 10/16/4 8/12/4
f 4/7/5 6/10/5 8/13/5 10/15/5 12/18/5 2/3/5
f 17/29/6 18/31/6 12/19/6 10/16/6
f 18/31/7 13/21/7 2/4/7 12/19/7
f 9/14/2 23/37/2 24/38/2 11/17/2
f 3/5/8 14/24/8 13/22/8 1/1/8
f 5/8/8 15/26/8 14/24/8 3/5/8
f 7/11/8 16/28/8 15/26/8 5/8/8
f 9/14/8 17/30/8 16/28/8 7/11/8
f 11/17/8 18/32/8 17/30/8 9/14/8
f 1/1/8 13/22/8 18/32/8 11/17/8
f 19/33/8 24/38/8 23/37/8 22/36/8 21/35/8 20/34/8
f 5/8/7 21/35/7 22/36/7 7/11/7
f 1/1/4 19/33/4 20/34/4 3/5/4
f 11/17/3 24/38/3 19/33/3 1/1/3
f 7/11/1 22/36/1 23/37/1 9/14/1
f 3/5/6 20/34/6 21/35/6 5/8/6
