# Blender 3.4.1
# www.blender.org
o Door_Frame
v 0.600224 2.256196 2.040000
v 0.600224 -0.002528 2.040000
v -0.600224 0.000000 2.040000
v -0.600224 2.256196 2.040000
v 0.537828 2.190773 2.040000
v 0.537828 -0.002528 2.040000
v -0.537828 -0.002528 2.040000
v -0.537828 2.190773 2.040000
v 0.537828 2.190773 1.960000
v 0.537828 -0.002528 1.960000
v -0.537828 -0.002528 1.960000
v -0.537828 2.190773 1.960000
v 0.600224 2.256196 1.960000
v 0.600224 -0.002528 1.960000
v -0.600224 0.000000 1.960000
v -0.600224 2.256196 1.960000
vn -0.0000 -0.0000 1.0000
vn -0.0000 -0.0000 -1.0000
vn -1.0000 -0.0000 -0.0000
vn -0.0000 1.0000 -0.0000
vn 1.0000 -0.0000 -0.0000
vn -0.0000 -1.0000 -0.0000
vt 0.109554 1.234457
vt 0.519669 1.605234
vt 0.362758 0.758161
vt 0.109554 -0.234457
vt 0.362758 0.241839
vt 0.890446 -0.234457
vt 0.637242 0.241839
vt 0.890446 1.234457
vt 0.519669 0.824342
vt 0.637241 0.758161
vt 0.150142 1.195118
vt 0.480331 1.564646
vt 0.377025 0.744334
vt 0.150142 -0.195118
vt 0.377025 0.255666
vt 0.849858 -0.195118
vt 0.622975 0.255667
vt 0.849858 1.195118
vt 0.480331 0.864929
vt 0.622975 0.744334
vt 0.150142 1.195118
vt 0.480331 1.564646
vt 0.377025 0.744334
vt 0.150142 -0.195118
vt 0.377025 0.255666
vt 0.849858 -0.195118
vt 0.622975 0.255667
vt 0.849858 1.195118
vt 0.480331 0.864929
vt 0.622975 0.744334
vt 0.109554 1.234457
vt 0.519669 1.605234
vt 0.362758 0.758161
vt 0.109554 -0.234457
vt 0.362758 0.241839
vt 0.890446 -0.234457
vt 0.637242 0.241839
vt 0.890446 1.234457
vt 0.519669 0.824342
vt 0.637241 0.758161
s 0
f 6/14/1 2/4/1 1/1/1 5/11/1
f 8/18/1 4/8/1 3/6/1 7/16/1
f 5/12/1 1/2/1 4/9/1 8/19/1
f 10/24/2 9/21/2 13/31/2 14/34/2
f 12/28/2 11/26/2 15/36/2 16/38/2
f 9/22/2 12/29/2 16/39/2 13/32/2
f 6/15/3 5/13/3 9/23/3 10/25/3
f 4/10/4 1/3/4 13/33/4 16/40/4
f 1/3/5 2/5/5 14/35/5 13/33/5
f 8/20/5 7/17/5 11/27/5 12/30/5
f 3/7/3 4/10/3 16/40/3 15/37/3
f 5/13/6 8/20/6 12/30/6 9/23/6
