# Blender 3.4.1
# www.blender.org
o Torus
v -0.000000 -0.103288 0.000000
v -0.017890 -0.092959 0.000000
v -0.017890 -0.072301 0.000000
v -0.000000 -0.061973 0.000000
v 0.017890 -0.072301 0.000000
v 0.017890 -0.092959 0.000000
v -0.000000 -0.051644 0.089450
v -0.017890 -0.046479 0.080505
v -0.017890 -0.036151 0.062615
v -0.000000 -0.030986 0.053670
v 0.017890 -0.036151 0.062615
v 0.017890 -0.046479 0.080505
v 0.000000 0.051644 0.089450
v -0.017890 0.046479 0.080505
v -0.017890 0.036151 0.062615
v 0.000000 0.030986 0.053670
v 0.017890 0.036151 0.062615
v 0.017890 0.046479 0.080505
v 0.000000 0.103288 0.000000
v -0.017890 0.092959 0.000000
v -0.017890 0.072301 0.000000
v 0.000000 0.061973 0.000000
v 0.017890 0.072301 0.000000
v 0.017890 0.092959 0.000000
v 0.000000 0.051644 -0.089450
v -0.017890 0.046479 -0.080505
v -0.017890 0.036151 -0.062615
v 0.000000 0.030986 -0.053670
v 0.017890 0.036151 -0.062615
v 0.017890 0.046479 -0.080505
v -0.000000 -0.051644 -0.089450
v -0.017890 -0.046479 -0.080505
v -0.017890 -0.036151 -0.062615
v -0.000000 -0.030986 -0.053670
v 0.017890 -0.036151 -0.062615
v 0.017890 -0.046479 -0.080505
v 0.010863 0.510059 0.018815
v -0.010863 0.510059 0.018815
v 0.010863 0.076430 0.018815
v 0.010863 0.119881 0.018815
v -0.010863 0.076430 0.018815
v -0.010863 0.119881 0.018815
v -0.021725 0.076430 0.000000
v -0.021725 0.119881 -0.000000
v -0.010863 0.076430 -0.018815
v -0.010863 0.119881 -0.018815
v 0.010863 0.076430 -0.018815
v 0.010863 0.119881 -0.018815
v 0.021725 0.076430 0.000000
v 0.021725 0.119881 0.000000
v -0.021725 0.510059 -0.000000
v -0.010863 0.510059 -0.018815
v 0.010863 0.510059 -0.018815
v 0.021725 0.510059 -0.000000
v 0.010863 0.445029 0.018815
v 0.010863 0.380000 0.018815
v 0.010863 0.314970 0.018815
v 0.010863 0.249940 0.018815
v 0.010863 0.184910 0.018815
v -0.021725 0.445029 -0.000000
v -0.021725 0.380000 -0.000000
v -0.021725 0.314970 -0.000000
v -0.021725 0.249940 -0.000000
v -0.021725 0.184910 -0.000000
v -0.010863 0.184910 0.018815
v -0.010863 0.249940 0.018815
v -0.010863 0.314970 0.018815
v -0.010863 0.380000 0.018815
v -0.010863 0.445029 0.018815
v 0.021725 0.445029 -0.000000
v 0.021725 0.380000 -0.000000
v 0.021725 0.314970 -0.000000
v 0.021725 0.249940 -0.000000
v 0.021725 0.184910 -0.000000
v 0.010863 0.445029 -0.018815
v 0.010863 0.380000 -0.018815
v 0.010863 0.314970 -0.018815
v 0.010863 0.249940 -0.018815
v 0.010863 0.184910 -0.018815
v -0.010863 0.184910 -0.018815
v -0.010863 0.249940 -0.018815
v -0.010863 0.314970 -0.018815
v -0.010863 0.380000 -0.018815
v -0.010863 0.445029 -0.018815
v 0.010863 0.510059 -0.093610
v -0.010863 0.510059 -0.093610
v -0.010863 0.445029 -0.093610
v 0.010863 0.445029 -0.093610
v 0.010863 0.380000 -0.058728
v 0.010863 0.314970 -0.058728
v -0.010863 0.314970 -0.058728
v -0.010863 0.380000 -0.058728
vn -0.4472 -0.7746 0.4472
vn -1.0000 -0.0000 -0.0000
vn -0.4472 0.7746 -0.4472
vn 0.4472 0.7746 -0.4472
vn 1.0000 -0.0000 -0.0000
vn 0.4472 -0.7746 0.4472
vn -0.4472 -0.0000 0.8944
vn -0.4472 -0.0000 -0.8944
vn 0.4472 -0.0000 -0.8944
vn 0.4472 -0.0000 0.8944
vn -0.4472 0.7746 0.4472
vn -0.4472 -0.7746 -0.4472
vn 0.4472 -0.7746 -0.4472
vn 0.4472 0.7746 0.4472
vn -0.8660 -0.0000 -0.5000
vn -0.0000 -0.0000 1.0000
vn 0.8660 -0.0000 0.5000
vn -0.8660 -0.0000 0.5000
vn 0.8660 -0.0000 -0.5000
vn -0.0000 -0.0000 -1.0000
vn -0.0000 1.0000 -0.0000
vn -0.0000 -1.0000 -0.0000
vt 0.500000 0.500000
vt 0.500000 0.666667
vt 0.500000 0.833333
vt 0.500000 1.000000
vt 0.500000 -0.000000
vt 0.500000 0.166667
vt 0.500000 0.333333
vt 0.666667 0.500000
vt 0.666667 0.666667
vt 0.666667 0.833333
vt 0.666667 1.000000
vt 0.666667 -0.000000
vt 0.666667 0.166667
vt 0.666667 0.333333
vt 0.833333 0.500000
vt 0.833333 0.666667
vt 0.833333 0.833333
vt 0.833333 1.000000
vt 0.833333 -0.000000
vt 0.833333 0.166667
vt 0.833333 0.333333
vt 1.000000 0.500000
vt -0.000000 0.500000
vt 1.000000 0.666667
vt -0.000000 0.666667
vt 1.000000 0.833333
vt -0.000000 0.833333
vt 1.000000 1.000000
vt 1.000000 -0.000000
vt -0.000000 1.000000
vt -0.000000 -0.000000
vt 1.000000 0.166667
vt -0.000000 0.166667
vt 1.000000 0.333333
vt -0.000000 0.333333
vt 0.166667 0.500000
vt 0.166667 0.666667
vt 0.166667 0.833333
vt 0.166667 1.000000
vt 0.166667 -0.000000
vt 0.166667 0.166667
vt 0.166667 0.333333
vt 0.333333 0.500000
vt 0.333333 0.666667
vt 0.333333 0.833333
vt 0.333333 1.000000
vt 0.333333 -0.000000
vt 0.333333 0.166667
vt 0.333333 0.333333
vt 1.000000 1.000000
vt -0.000000 1.000000
vt 0.250000 0.490000
vt 0.833333 1.000000
vt 0.457846 0.370000
vt 1.000000 0.500000
vt -0.000000 0.500000
vt 0.750000 0.490000
vt -0.000000 1.000000
vt 1.000000 1.000000
vt 0.833333 0.500000
vt 0.957846 0.370000
vt 0.833333 1.000000
vt 0.666667 0.500000
vt 0.957846 0.130000
vt 0.666667 1.000000
vt 0.500000 0.500000
vt 0.750000 0.010000
vt 0.500000 1.000000
vt 0.333333 0.500000
vt 0.542154 0.130000
vt 0.333333 1.000000
vt 0.166667 0.500000
vt 0.542154 0.370000
vt 0.166667 1.000000
vt 0.457846 0.130000
vt 0.666667 1.000000
vt 0.500000 1.000000
vt 0.250000 0.010000
vt 0.042154 0.130000
vt 0.333333 1.000000
vt 0.166667 1.000000
vt 0.042154 0.370000
vt -0.000000 1.000000
vt 1.000000 1.000000
vt -0.000000 1.000000
vt 1.000000 1.000000
vt -0.000000 1.000000
vt 1.000000 1.000000
vt -0.000000 1.000000
vt 1.000000 1.000000
vt -0.000000 1.000000
vt 1.000000 1.000000
vt 0.666667 1.000000
vt 0.666667 1.000000
vt 0.666667 1.000000
vt 0.666667 1.000000
vt 0.666667 1.000000
vt 0.833333 1.000000
vt 0.833333 1.000000
vt 0.833333 1.000000
vt 0.833333 1.000000
vt 0.833333 1.000000
vt 0.166667 1.000000
vt 0.166667 1.000000
vt 0.166667 1.000000
vt 0.166667 1.000000
vt 0.166667 1.000000
vt 0.333333 1.000000
vt 0.333333 1.000000
vt 0.333333 1.000000
vt 0.333333 1.000000
vt 0.333333 1.000000
vt 0.500000 1.000000
vt 0.500000 1.000000
vt 0.500000 1.000000
vt 0.500000 1.000000
vt 0.500000 1.000000
vt 0.042154 0.130000
vt 0.333333 1.000000
vt 0.500000 1.000000
vt 0.250000 0.010000
vt 0.500000 1.000000
vt 0.333333 1.000000
vt 0.333333 1.000000
vt 0.333333 1.000000
vt 0.500000 1.000000
vt 0.500000 1.000000
s 0
f 1/1/1 7/8/1 8/9/1 2/2/1
f 2/2/2 8/9/2 9/10/2 3/3/2
f 3/3/3 9/10/3 10/11/3 4/4/3
f 4/5/4 10/12/4 11/13/4 5/6/4
f 5/6/5 11/13/5 12/14/5 6/7/5
f 6/7/6 12/14/6 7/8/6 1/1/6
f 7/8/7 13/15/7 14/16/7 8/9/7
f 8/9/2 14/16/2 15/17/2 9/10/2
f 9/10/8 15/17/8 16/18/8 10/11/8
f 10/12/9 16/19/9 17/20/9 11/13/9
f 11/13/5 17/20/5 18/21/5 12/14/5
f 12/14/10 18/21/10 13/15/10 7/8/10
f 13/15/11 19/22/11 20/24/11 14/16/11
f 14/16/2 20/24/2 21/26/2 15/17/2
f 15/17/12 21/26/12 22/28/12 16/18/12
f 16/19/13 22/29/13 23/32/13 17/20/13
f 17/20/5 23/32/5 24/34/5 18/21/5
f 18/21/14 24/34/14 19/22/14 13/15/14
f 19/23/3 25/36/3 26/37/3 20/25/3
f 20/25/2 26/37/2 27/38/2 21/27/2
f 21/27/1 27/38/1 28/39/1 22/30/1
f 22/31/6 28/40/6 29/41/6 23/33/6
f 23/33/5 29/41/5 30/42/5 24/35/5
f 24/35/4 30/42/4 25/36/4 19/23/4
f 25/36/8 31/43/8 32/44/8 26/37/8
f 26/37/2 32/44/2 33/45/2 27/38/2
f 27/38/7 33/45/7 34/46/7 28/39/7
f 28/40/10 34/47/10 35/48/10 29/41/10
f 29/41/5 35/48/5 36/49/5 30/42/5
f 30/42/9 36/49/9 31/43/9 25/36/9
f 31/43/12 1/1/12 2/2/12 32/44/12
f 32/44/2 2/2/2 3/3/2 33/45/2
f 33/45/11 3/3/11 4/4/11 34/46/11
f 34/47/14 4/5/14 5/6/14 35/48/14
f 35/48/5 5/6/5 6/7/5 36/49/5
f 36/49/13 6/7/13 1/1/13 31/43/13
f 82/115/15 62/95/15 61/94/15 83/116/15
f 69/102/16 55/84/16 37/50/16 38/53/16
f 39/55/16 40/59/16 42/62/16 41/60/16
f 83/116/15 61/94/15 60/93/15 84/117/15
f 55/83/17 70/103/17 54/81/17 37/51/17
f 41/60/18 42/62/18 44/65/18 43/63/18
f 80/113/15 64/97/15 63/96/15 81/114/15
f 60/93/18 69/102/18 38/53/18 51/76/18
f 43/63/15 44/65/15 46/68/15 45/66/15
f 46/68/15 44/65/15 64/97/15 80/113/15
f 70/103/19 75/108/19 53/80/19 54/81/19
f 45/66/20 46/68/20 48/71/20 47/69/20
f 84/117/2 52/77/2 86/120/2 87/122/2
f 38/54/21 37/52/21 54/82/21 53/79/21 52/78/21 51/75/21
f 47/69/19 48/71/19 50/74/19 49/72/19
f 81/114/15 63/96/15 62/95/15 82/115/15
f 84/117/15 60/93/15 51/76/15 52/77/15
f 49/72/17 50/74/17 40/58/17 39/56/17
f 39/57/22 41/61/22 43/64/22 45/67/22 47/70/22 49/73/22
f 48/71/20 46/68/20 80/113/20 79/112/20
f 79/112/20 80/113/20 81/114/20 78/111/20
f 78/111/20 81/114/20 82/115/20 77/110/20
f 77/110/22 82/115/22 91/126/22 90/125/22
f 76/109/20 83/116/20 84/117/20 75/108/20
f 50/74/19 48/71/19 79/112/19 74/107/19
f 74/107/19 79/112/19 78/111/19 73/106/19
f 73/106/19 78/111/19 77/110/19 72/105/19
f 72/105/19 77/110/19 76/109/19 71/104/19
f 71/104/19 76/109/19 75/108/19 70/103/19
f 44/65/18 42/62/18 65/98/18 64/97/18
f 64/97/18 65/98/18 66/99/18 63/96/18
f 63/96/18 66/99/18 67/100/18 62/95/18
f 62/95/18 67/100/18 68/101/18 61/94/18
f 61/94/18 68/101/18 69/102/18 60/93/18
f 40/58/17 50/74/17 74/107/17 59/91/17
f 59/91/17 74/107/17 73/106/17 58/89/17
f 58/89/17 73/106/17 72/105/17 57/87/17
f 57/87/17 72/105/17 71/104/17 56/85/17
f 56/85/17 71/104/17 70/103/17 55/83/17
f 42/62/16 40/59/16 59/92/16 65/98/16
f 65/98/16 59/92/16 58/90/16 66/99/16
f 66/99/16 58/90/16 57/88/16 67/100/16
f 67/100/16 57/88/16 56/86/16 68/101/16
f 68/101/16 56/86/16 55/84/16 69/102/16
f 88/123/20 87/122/20 86/120/20 85/119/20
f 52/78/21 53/79/21 85/118/21 86/121/21
f 53/80/5 75/108/5 88/123/5 85/119/5
f 75/108/22 84/117/22 87/122/22 88/123/22
f 90/125/20 91/126/20 92/127/20 89/124/20
f 76/109/5 77/110/5 90/125/5 89/124/5
f 83/116/21 76/109/21 89/124/21 92/127/21
f 82/115/2 83/116/2 92/127/2 91/126/2
