# Blender 3.4.1
# www.blender.org
o Lamp_Shade
v -1.071313 2.118655 1.842493
v -1.000072 2.118655 1.883624
v -1.071313 2.118655 1.760231
v -1.000072 2.118655 1.719101
v -0.928832 2.118655 1.760231
v -0.928832 2.118655 1.842493
v -0.884558 1.848714 1.734670
v -0.884558 1.848714 1.868054
v -1.115587 1.848714 1.734670
v -1.000072 1.848714 1.667977
v -1.000072 1.848714 1.934747
v -1.115587 1.848714 1.868054
vn 0.9868 0.1619 -0.0000
vn -0.4934 0.1619 -0.8546
vn -0.4934 0.1618 0.8546
vn 0.4934 0.1618 0.8546
vn 0.4934 0.1619 -0.8546
vn -0.9868 0.1618 -0.0000
vt 0.833333 1.000000
vt 1.000000 1.000000
vt -0.000000 1.000000
vt 0.666667 1.000000
vt 0.500000 1.000000
vt 0.333333 1.000000
vt 0.166667 1.000000
vt 0.333333 1.000000
vt 0.166667 1.000000
vt 0.666667 1.000000
vt 0.500000 1.000000
vt 1.000000 1.000000
vt -0.000000 1.000000
vt 0.833333 1.000000
s 0
f 8/9/1 7/8/1 5/6/1 6/7/1
f 10/11/2 9/10/2 3/4/2 4/5/2
f 12/14/3 11/12/3 2/2/3 1/1/3
f 11/13/4 8/9/4 6/7/4 2/3/4
f 7/8/5 10/11/5 4/5/5 5/6/5
f 9/10/6 12/14/6 1/1/6 3/4/6
