# Blender 3.4.1
# www.blender.org
o Mouse_Ball
v -0.000000 -0.003383 -0.008477
v -0.011352 0.008370 -0.010731
v 0.004336 0.011125 -0.015020
v 0.014031 0.003913 -0.003791
v 0.004336 -0.003298 0.007437
v -0.011352 -0.000543 0.003148
v -0.004336 0.022931 -0.007437
v 0.011352 0.020177 -0.003148
v 0.011352 0.011263 0.010731
v -0.004336 0.008509 0.015020
v -0.014031 0.015720 0.003791
v 0.000000 0.023017 0.008477
vn -0.1876 -0.3566 -0.9152
vn -0.6071 -0.6686 -0.4294
vn 0.4911 -0.4758 -0.7297
vn 0.4911 -0.8615 -0.1292
vn -0.1876 -0.9806 0.0564
vn -0.9822 -0.1578 -0.1014
vn -0.3035 0.3470 -0.8874
vn 0.7946 0.1542 -0.5872
vn 0.7946 -0.4698 0.3844
vn -0.3035 -0.6626 0.6847
vn -0.7946 0.4698 -0.3844
vn 0.3035 0.6626 -0.6847
vn 0.9822 0.1578 0.1014
vn 0.3035 -0.3470 0.8874
vn -0.7946 -0.1542 0.5872
vn -0.4911 0.8615 0.1292
vn 0.1876 0.9806 -0.0564
vn 0.6071 0.6686 0.4294
vn 0.1876 0.3566 0.9152
vn -0.4911 0.4758 0.7297
vt 0.181819 0.000000
vt 0.363637 0.000000
vt 0.909091 0.000000
vt 0.727273 0.000000
vt 0.545455 0.000000
vt 0.272728 0.157461
vt 1.000000 0.157461
vt 0.090910 0.157461
vt 0.818182 0.157461
vt 0.636364 0.157461
vt 0.454546 0.157461
vt 0.181819 0.314921
vt 0.000000 0.314921
vt 0.909091 0.314921
vt 0.727273 0.314921
vt 0.545455 0.314921
vt 0.363637 0.314921
vt 0.272728 0.472382
vt 0.090910 0.472382
vt 0.818182 0.472382
vt 0.636364 0.472382
vt 0.454546 0.472382
s 0
f 1/1/1 2/6/1 3/8/1
f 2/6/2 1/2/2 6/11/2
f 1/3/3 3/7/3 4/9/3
f 1/4/4 4/9/4 5/10/4
f 1/5/5 5/10/5 6/11/5
f 2/6/6 6/11/6 11/17/6
f 3/8/7 2/6/7 7/12/7
f 4/9/8 3/7/8 8/14/8
f 5/10/9 4/9/9 9/15/9
f 6/11/10 5/10/10 10/16/10
f 2/6/11 11/17/11 7/12/11
f 3/8/12 7/12/12 8/13/12
f 4/9/13 8/14/13 9/15/13
f 5/10/14 9/15/14 10/16/14
f 6/11/15 10/16/15 11/17/15
f 7/12/16 11/17/16 12/18/16
f 8/13/17 7/12/17 12/19/17
f 9/15/18 8/14/18 12/20/18
f 10/16/19 9/15/19 12/21/19
f 11/17/20 10/16/20 12/22/20
