# Blender 3.4.1
# www.blender.org
o Stool
v 0.000000 0.518691 0.347291
v 0.000000 0.575200 0.347291
v -0.300763 0.518691 0.173645
v -0.300763 0.575200 0.173645
v -0.300763 0.518691 -0.173645
v -0.300763 0.575200 -0.173645
v 0.000000 0.518691 -0.347291
v 0.000000 0.575200 -0.347291
v 0.300763 0.518691 -0.173645
v 0.300763 0.575200 -0.173645
v 0.300763 0.518691 0.173645
v 0.300763 0.575200 0.173645
v 0.148307 0.549925 -0.123383
v 0.148307 0.254920 -0.123383
v 0.202555 0.549925 -0.154355
v 0.202555 0.254920 -0.154355
v 0.179280 0.549925 -0.069135
v 0.179280 0.254920 -0.069135
v 0.233528 0.549925 -0.100107
v 0.233528 0.254920 -0.100107
v -0.123383 0.549925 -0.148307
v -0.123383 0.254920 -0.148307
v -0.154355 0.549925 -0.202555
v -0.154355 0.254920 -0.202555
v -0.069135 0.549925 -0.179280
v -0.069135 0.254920 -0.179280
v -0.100107 0.549925 -0.233528
v -0.100107 0.254920 -0.233528
v -0.233528 0.254920 0.100107
v -0.233528 0.549925 0.100107
v -0.179280 0.254920 0.069135
v -0.179280 0.549925 0.069135
v -0.202555 0.254920 0.154355
v -0.202555 0.549925 0.154355
v -0.148307 0.254920 0.123383
v -0.148307 0.549925 0.123383
v 0.100107 0.254920 0.233528
v 0.100107 0.549925 0.233528
v 0.069135 0.254920 0.179280
v 0.069135 0.549925 0.179280
v 0.154355 0.254920 0.202555
v 0.154355 0.549925 0.202555
v 0.123383 0.254920 0.148307
v 0.123383 0.549925 0.148307
v 0.225379 0.001209 -0.171748
v 0.259842 0.001209 -0.111387
v 0.199481 0.001209 -0.076925
v 0.165019 0.001209 -0.137285
v -0.137285 0.001209 -0.165019
v -0.171748 0.001209 -0.225379
v -0.111387 0.001209 -0.259842
v -0.076925 0.001209 -0.199481
v -0.199481 0.001209 0.076925
v -0.165019 0.001209 0.137285
v -0.259842 0.001209 0.111387
v -0.225379 0.001209 0.171748
v 0.076925 0.001209 0.199481
v 0.137285 0.001209 0.165019
v 0.111387 0.001209 0.259842
v 0.171748 0.001209 0.225379
vn -0.5000 -0.0000 0.8660
vn -1.0000 -0.0000 -0.0000
vn -0.5000 -0.0000 -0.8660
vn 0.5000 -0.0000 -0.8660
vn -0.0000 1.0000 -0.0000
vn 1.0000 -0.0000 -0.0000
vn 0.5000 -0.0000 0.8660
vn -0.0000 -1.0000 -0.0000
vn 0.4958 0.0149 0.8683
vn 0.8684 -0.0000 -0.4958
vn -0.8684 -0.0000 0.4958
vn 0.4958 -0.0000 0.8684
vn -0.4958 -0.0000 -0.8684
vn 0.4927 0.1114 0.8630
vn -0.4958 0.0149 -0.8683
vn -0.4927 0.1114 -0.8630
vn -0.4958 0.0128 -0.8684
vn 0.8630 0.1114 -0.4927
vn 0.8684 0.0128 -0.4958
vn -0.8630 0.1114 0.4927
vn -0.8653 -0.0841 0.4941
vn -0.4941 -0.0841 -0.8653
vn -0.8683 0.0149 0.4958
vn 0.8683 0.0149 -0.4958
vn 0.4941 -0.0841 0.8653
vn -0.8684 0.0128 0.4958
vn 0.4958 0.0128 0.8684
vn 0.8653 -0.0841 -0.4941
vt 1.000000 0.500000
vt -0.000000 0.500000
vt 0.750000 0.490000
vt 1.000000 1.000000
vt 0.250000 0.490000
vt -0.000000 1.000000
vt 0.833333 0.500000
vt 0.957846 0.370000
vt 0.833333 1.000000
vt 0.457846 0.370000
vt 0.666667 0.500000
vt 0.957846 0.130000
vt 0.666667 1.000000
vt 0.457846 0.130000
vt 0.500000 0.500000
vt 0.750000 0.010000
vt 0.500000 1.000000
vt 0.250000 0.010000
vt 0.333333 0.500000
vt 0.542154 0.130000
vt 0.042154 0.130000
vt 0.333333 1.000000
vt 0.166667 0.500000
vt 0.542154 0.370000
vt 0.042154 0.370000
vt 0.166667 1.000000
vt 0.125000 0.750000
vt 0.375000 1.000000
vt 0.375000 0.000000
vt 0.625000 0.000000
vt 0.625000 1.000000
vt 0.125000 0.500000
vt 0.375000 0.250000
vt 0.625000 0.250000
vt 0.375000 0.750000
vt 0.625000 0.750000
vt 0.375000 0.500000
vt 0.625000 0.500000
vt 0.375000 0.000000
vt 0.375000 1.000000
vt 0.125000 0.750000
vt 0.625000 0.000000
vt 0.625000 1.000000
vt 0.375000 0.250000
vt 0.125000 0.500000
vt 0.625000 0.250000
vt 0.375000 0.750000
vt 0.625000 0.750000
vt 0.375000 0.500000
vt 0.625000 0.500000
vt 0.625000 0.500000
vt 0.375000 0.500000
vt 0.625000 0.750000
vt 0.375000 0.750000
vt 0.625000 0.250000
vt 0.125000 0.500000
vt 0.375000 0.250000
vt 0.625000 0.000000
vt 0.625000 1.000000
vt 0.125000 0.750000
vt 0.375000 0.000000
vt 0.375000 1.000000
vt 0.625000 0.500000
vt 0.375000 0.500000
vt 0.625000 0.750000
vt 0.375000 0.750000
vt 0.625000 0.250000
vt 0.125000 0.500000
vt 0.375000 0.250000
vt 0.625000 1.000000
vt 0.625000 0.000000
vt 0.125000 0.750000
vt 0.375000 0.000000
vt 0.375000 1.000000
vt 0.875000 0.500000
vt 0.625000 0.250000
vt 0.625000 0.500000
vt 0.625000 0.750000
vt 0.625000 0.000000
vt 0.875000 0.750000
vt 0.625000 1.000000
vt 0.875000 0.750000
vt 0.625000 0.000000
vt 0.625000 1.000000
vt 0.875000 0.500000
vt 0.625000 0.250000
vt 0.625000 0.500000
vt 0.625000 0.750000
vt 0.625000 0.750000
vt 0.625000 0.000000
vt 0.875000 0.750000
vt 0.625000 1.000000
vt 0.625000 0.500000
vt 0.875000 0.500000
vt 0.625000 0.250000
vt 0.625000 0.750000
vt 0.875000 0.750000
vt 0.625000 1.000000
vt 0.625000 0.000000
vt 0.625000 0.500000
vt 0.875000 0.500000
vt 0.625000 0.250000
s 0
f 1/1/1 2/4/1 4/9/1 3/7/1
f 3/7/2 4/9/2 6/13/2 5/11/2
f 5/11/3 6/13/3 8/17/3 7/15/3
f 7/15/4 8/17/4 10/22/4 9/19/4
f 4/10/5 2/5/5 12/25/5 10/21/5 8/18/5 6/14/5
f 9/19/6 10/22/6 12/26/6 11/23/6
f 11/23/7 12/26/7 2/6/7 1/2/7
f 1/3/8 3/8/8 5/12/8 7/16/8 9/20/8 11/24/8
f 33/55/9 56/95/9 54/90/9 35/58/9
f 15/33/10 19/37/10 20/38/10 16/34/10
f 15/32/5 13/27/5 17/35/5 19/37/5
f 17/35/11 13/28/11 14/31/11 18/36/11
f 19/37/12 17/35/12 18/36/12 20/38/12
f 13/29/13 15/33/13 16/34/13 14/30/13
f 21/39/11 23/44/11 24/46/11 22/42/11
f 23/44/13 27/49/13 28/50/13 24/46/13
f 27/49/10 25/47/10 26/48/10 28/50/10
f 25/47/12 21/40/12 22/43/12 26/48/12
f 23/45/5 21/41/5 25/47/5 27/49/5
f 37/63/14 59/100/14 60/102/14 41/67/14
f 34/56/5 36/60/5 32/54/5 30/52/5
f 34/57/11 30/52/11 29/51/11 33/55/11
f 36/61/12 34/57/12 33/55/12 35/58/12
f 32/54/10 36/62/10 35/59/10 31/53/10
f 16/34/15 45/76/15 48/79/15 14/30/15
f 30/52/13 32/54/13 31/53/13 29/51/13
f 42/68/5 44/72/5 40/66/5 38/64/5
f 42/69/12 38/64/12 37/63/12 41/67/12
f 44/73/10 42/69/10 41/67/10 43/71/10
f 40/66/13 44/74/13 43/70/13 39/65/13
f 28/50/16 51/87/16 50/86/16 24/46/16
f 38/64/11 40/66/11 39/65/11 37/63/11
f 46/77/8 47/78/8 48/80/8 45/75/8
f 51/87/8 52/88/8 49/82/8 50/85/8
f 55/93/8 53/89/8 54/91/8 56/94/8
f 59/100/8 57/96/8 58/97/8 60/101/8
f 31/53/17 53/89/17 55/93/17 29/51/17
f 20/38/18 46/77/18 45/76/18 16/34/18
f 26/48/19 52/88/19 51/87/19 28/50/19
f 29/51/20 55/93/20 56/95/20 33/55/20
f 14/31/21 48/81/21 47/78/21 18/36/21
f 43/70/22 58/98/22 57/96/22 39/65/22
f 24/46/23 50/86/23 49/83/23 22/42/23
f 41/67/24 60/102/24 58/99/24 43/71/24
f 22/43/25 49/84/25 52/88/25 26/48/25
f 39/65/26 57/96/26 59/100/26 37/63/26
f 18/36/27 47/78/27 46/77/27 20/38/27
f 35/59/28 54/92/28 53/89/28 31/53/28
