# Blender 3.4.1
# www.blender.org
o Wall_Trim.001
v 2.000000 1.000000 1.990000
v 2.000000 0.000000 1.980000
v 2.000000 1.000000 1.980000
v 2.000000 0.984666 1.970000
v 2.000000 0.961096 1.970000
v 2.000000 0.945175 1.980000
v 1.990000 1.000000 2.000000
v 1.980000 1.000000 2.000000
v 1.980000 0.000000 2.000000
v 1.970000 0.984666 2.000000
v 1.970000 0.961096 2.000000
v 1.980000 0.945175 2.000000
v 1.990000 1.000000 1.990000
v 1.980000 0.000000 1.980000
v 1.980000 1.000000 1.980000
v 1.970000 0.984666 1.970000
v 1.970000 0.961096 1.970000
v 1.980000 0.945175 1.980000
vn -0.0000 -0.0000 -1.0000
vn -0.0000 1.0000 -0.0000
vn -0.0000 -0.5319 -0.8468
vn -0.8468 -0.5319 -0.0000
vn -1.0000 -0.0000 -0.0000
vn -0.8376 0.5463 -0.0000
vn -0.0000 0.5462 -0.8376
vt 1.000000 0.500000
vt 1.000000 0.000000
vt 1.000000 0.500000
vt 1.000000 0.250000
vt 1.000000 0.245687
vt 1.000000 0.240785
vt 0.000000 0.500000
vt 0.000000 0.500000
vt 0.000000 0.000000
vt 0.000000 0.250000
vt 0.000000 0.245687
vt 0.000000 0.240785
vt 0.000000 0.500000
vt 1.000000 0.500000
vt 1.000000 0.000000
vt 0.000000 0.000000
vt 0.000000 0.500000
vt 1.000000 0.500000
vt 0.000000 0.250000
vt 1.000000 0.250000
vt 1.000000 0.245687
vt 0.000000 0.245687
vt 1.000000 0.240785
vt 0.000000 0.240785
s 0
f 6/6/1 2/2/1 14/15/1 18/23/1
f 8/8/2 7/7/2 13/13/2 15/17/2
f 5/5/3 6/6/3 18/23/3 17/21/3
f 4/4/1 5/5/1 17/21/1 16/20/1
f 12/12/4 11/11/4 17/22/4 18/24/4
f 11/11/5 10/10/5 16/19/5 17/22/5
f 1/1/2 3/3/2 15/18/2 13/14/2
f 10/10/6 8/8/6 15/17/6 16/19/6
f 3/3/7 4/4/7 16/20/7 15/18/7
f 9/9/5 12/12/5 18/24/5 14/16/5
