# Blender 3.4.1
# www.blender.org
o Simple_Wall.002
v 1.990000 0.000000 2.000000
v 1.990000 3.000000 2.000000
v 2.000000 0.000000 1.990000
v 2.000000 3.000000 1.990000
v 1.990000 0.000000 1.990000
v 1.990000 3.000000 1.990000
vn -0.0000 -0.0000 -1.0000
vn -1.0000 -0.0000 -0.0000
vt 0.000000 0.000000
vt 0.000000 1.000000
vt 1.000000 0.000000
vt 1.000000 1.000000
vt 1.000000 0.000000
vt 0.000000 0.000000
vt 1.000000 1.000000
vt 0.000000 1.000000
s 0
f 4/4/1 3/3/1 5/5/1 6/7/1
f 1/1/2 2/2/2 6/8/2 5/6/2
